<svg xmlns="http://www.w3.org/2000/svg" width="415" height="450" viewBox="0 0 415 450" version="1.1">
	<path d="M 256.500 17.635 C 246.582 22.688, 241.100 26.896, 228 39.514 C 215.510 51.543, 209.887 55.012, 202.934 54.978 C 195.963 54.944, 190.478 51.737, 180.084 41.622 C 167.986 29.848, 161.394 24.727, 152.698 20.348 C 141.159 14.537, 140.148 14.428, 145.922 19.619 C 148.782 22.191, 154.496 28.489, 158.618 33.615 C 177.782 57.442, 195.136 65.243, 215.145 59.025 C 226.565 55.476, 235.839 47.761, 250.310 29.768 C 254.556 24.489, 259.711 18.797, 261.765 17.118 C 266.674 13.108, 265.078 13.264, 256.500 17.635 M 322.876 22.545 C 349.623 47.998, 362 83.847, 362 135.867 C 362 190.479, 351.673 233.794, 326.842 283.325 C 314.931 307.085, 296.534 336.062, 272.500 368.920 L 260.500 385.326 260.263 381.413 C 258.182 347.059, 251.887 322.802, 237.558 293.916 C 228.431 275.516, 217.346 262.755, 205.377 256.867 C 198.979 253.720, 197.872 253.500, 188.461 253.500 C 178.778 253.500, 178.086 253.650, 170.446 257.404 C 164.256 260.445, 160.608 263.208, 153.939 269.904 C 149.231 274.632, 143.291 281.676, 140.740 285.558 C 131.940 298.948, 122.036 321.111, 117.399 337.787 C 116.449 341.204, 115.395 344, 115.057 344 C 114.719 344, 111.232 334.663, 107.308 323.250 C 100.592 303.714, 95.328 288.578, 77.314 237 C 57.676 180.775, 55.142 171.438, 52.478 145.500 C 50.659 127.799, 50.655 117.952, 52.458 100.965 C 56.264 65.104, 67.787 36.802, 85.319 20.250 C 88.378 17.363, 90.695 15, 90.469 15 C 90.242 15, 87.584 16.094, 84.561 17.431 C 61.145 27.786, 40.905 51.182, 30.646 79.752 C 18.256 114.254, 17.853 155.536, 29.547 192.216 C 31.830 199.375, 52.856 250.034, 72 294.500 C 89.455 335.041, 109.382 383.978, 118.543 408.800 C 122.112 418.470, 122.502 419.081, 124.921 418.800 C 127.795 418.465, 127.639 419.169, 129.964 396 C 135.257 343.251, 149.377 302.604, 169.249 282.908 C 179.613 272.636, 190.807 270.282, 198.789 276.695 C 209.807 285.547, 219.003 302.263, 225.377 325.021 C 230.812 344.429, 232.010 374.844, 228.193 396.500 C 226.110 408.319, 222.860 420.410, 218.978 430.788 C 217.890 433.696, 217 436.910, 217 437.931 C 217 440.447, 219.815 441.352, 222.391 439.662 C 227.645 436.216, 246.113 419.140, 263.521 401.631 C 303.256 361.667, 331.522 323.923, 357.232 276.500 C 375.906 242.054, 384.715 217.644, 389.709 186.500 C 392.210 170.911, 392.260 125.504, 389.792 112.500 C 382.334 73.212, 364.081 44.673, 333.490 24.476 C 329.085 21.567, 322.903 18.047, 319.752 16.654 L 314.024 14.121 322.876 22.545" stroke="none" fill="#ffffff" fill-rule="evenodd"/>
</svg>